<?xml version="1.0" encoding="UTF-8" standalone="no"?>
<!-- Generator: Adobe Illustrator 13.0.0, SVG Export Plug-In  -->

<svg xmlns:dc="http://purl.org/dc/elements/1.1/" xmlns:cc="http://creativecommons.org/ns#" xmlns:rdf="http://www.w3.org/1999/02/22-rdf-syntax-ns#" xmlns:svg="http://www.w3.org/2000/svg" xmlns="http://www.w3.org/2000/svg" xmlns:sodipodi="http://sodipodi.sourceforge.net/DTD/sodipodi-0.dtd" xmlns:inkscape="http://www.inkscape.org/namespaces/inkscape" version="1.2" x="0px" y="0px" width="132.50105" height="85.500092" viewBox="-14.75 -15.25 132.50105 85.500092" xml:space="preserve" id="svg2" inkscape:version="0.48.1 " sodipodi:docname="AJAX.svg"><metadata id="metadata40"><rdf:RDF><cc:Work rdf:about=""><dc:format>image/svg+xml</dc:format><dc:type rdf:resource="http://purl.org/dc/dcmitype/StillImage"/></cc:Work></rdf:RDF></metadata><sodipodi:namedview pagecolor="#ffffff" bordercolor="#666666" borderopacity="1" objecttolerance="10" gridtolerance="10" guidetolerance="10" inkscape:pageopacity="0" inkscape:pageshadow="2" inkscape:window-width="1280" inkscape:window-height="1004" id="namedview38" showgrid="false" fit-margin-top="0" fit-margin-left="0" fit-margin-right="0" fit-margin-bottom="0" inkscape:zoom="2.25" inkscape:cx="66.25" inkscape:cy="42.75" inkscape:window-x="-8" inkscape:window-y="-8" inkscape:window-maximized="1" inkscape:current-layer="svg2"/>
<defs id="defs4">
</defs>
<path d="m -11.472,59.453091 h -3.278 v 0.467 c 1.38,0 1.411,0.354 1.411,1.845 v 5.945 c 0,1.53 -0.187,1.858 -1.055,1.858 h -0.356 v 0.479 h 3.436 v -0.479 h -0.37 c -0.858,0 -1.043,-0.328 -1.043,-1.858 v -5.894 l 6.667,8.434 h 0.428 v -8.485 c 0,-1.521 0.184,-1.845 1.054,-1.845 h 0.353 v -0.467 h -3.521 v 0.467 c 1.484,0 1.501,0.279 1.501,1.845 v 4.315 l -5.227,-6.627" id="path6" style="fill: rgb(255, 255, 255); stroke: none;" inkscape:connector-curvature="0"/>
<path d="M 11.302,59.453091 H 2.479 v 0.477 c 1.376,0 1.409,0.345 1.409,1.853 v 5.928 c 0,1.544 -0.184,1.858 -1.059,1.858 H 2.478 v 0.479 h 8.823 l 0.751,-3.312 H 11.58 c -0.784,1.851 -1.933,2.756 -3.955,2.756 -1.055,0 -1.239,-0.204 -1.239,-1.369 v -3.148 c 1.715,0 2.08,0.856 2.236,2.412 h 0.471 v -5.381 H 8.622 c -0.183,1.503 -0.584,2.271 -2.236,2.306 v -3.585 c 0,-0.559 0.15,-0.64 1.286,-0.64 1.134,0 1.668,0.126 2.221,0.548 0.627,0.468 0.765,0.776 0.937,2.006 h 0.472 v -3.188" id="path8" style="fill: rgb(255, 255, 255); stroke: none;" inkscape:connector-curvature="0"/>
<path d="m 20.213,59.453091 v 3.282 h 0.416 c 0.272,-1.963 1.041,-2.584 2.907,-2.648 v 7.623 c 0,1.563 0,1.858 -1.501,1.858 v 0.479 h 5.5 v -0.479 c -1.485,0 -1.499,-0.295 -1.499,-1.858 v -7.623 c 1.947,0.034 2.62,0.734 2.91,2.648 h 0.416 v -3.282 h -9.149" id="path10" style="fill: rgb(255, 255, 255); stroke: none;" inkscape:connector-curvature="0"/>
<path d="m 42.929,66.535091 -1.549,-4.771 c -0.138,-0.397 -0.305,-0.79 -0.305,-1.226 0,-0.433 0.21,-0.619 0.75,-0.619 h 0.293 v -0.467 h -4.601 v 0.467 c 0.738,0.293 0.861,0.466 1.335,1.845 l 2.895,8.485 h 0.381 l 2.959,-7.422 2.545,7.422 h 0.429 l 2.851,-8.485 c 0.246,-0.708 0.52,-1.739 1.409,-1.845 v -0.467 h -2.989 v 0.467 h 0.487 c 0.554,0 0.752,0.187 0.752,0.638 0,0.264 -0.013,0.326 -0.307,1.207 l -1.578,4.771 -1.483,-4.771 c -0.245,-0.741 -0.281,-0.933 -0.281,-1.19 0,-0.468 0.219,-0.654 0.756,-0.654 h 0.229 v -0.467 h -4.936 v 0.467 c 1.194,0 1.438,1.025 1.791,1.976 l -1.833,4.639" id="path12" style="fill: rgb(255, 255, 255); stroke: none;" inkscape:connector-curvature="0"/>
<path d="m 101.877,64.682091 v -2.917 c 0,-1.521 0.186,-1.845 1.059,-1.845 h 0.355 v -0.467 h -5.32 v 0.467 c 1.38,0 1.408,0.354 1.408,1.845 v 5.969 c 0,1.521 -0.183,1.851 -1.056,1.851 H 97.97 v 0.464 h 5.32 v -0.464 h -0.355 c -0.873,0 -1.059,-0.33 -1.059,-1.851 v -2.276 l 0.374,-0.372 2.02,2.647 c 0.308,0.39 0.985,1.057 0.985,1.555 0,0.204 -0.173,0.296 -0.571,0.296 h -0.691 v 0.464 h 5.257 v -0.464 c -0.691,-0.281 -0.816,-0.387 -1.979,-1.851 l -3.43,-4.299 1.515,-1.588 c 1.06,-1.105 1.83,-1.821 3.388,-1.883 v -0.511 h -4.386 v 0.467 h 1.014 c 0.38,0 0.51,0.06 0.51,0.248 0,0.19 -0.233,0.559 -0.57,0.913 l -0.672,0.684 -2.763,2.918" id="path14" style="fill: rgb(255, 255, 255); stroke: none;" inkscape:connector-curvature="0"/>
<path d="m 65.869,59.840091 c 1.684,0 2.728,1.883 2.728,4.934 0,3.141 -0.963,4.887 -2.728,4.887 -1.763,0 -2.725,-1.746 -2.725,-4.887 0.001,-3.051 1.036,-4.934 2.725,-4.934 m 0,-0.59 c -3.106,0 -5.436,2.33 -5.436,5.479 0,3.161 2.329,5.521 5.436,5.521 3.113,0 5.441,-2.359 5.441,-5.521 0.001,-3.149 -2.314,-5.479 -5.441,-5.479" id="path16" style="fill: rgb(255, 255, 255); stroke: none;" inkscape:connector-curvature="0"/>
<path d="m 83.464,60.804091 c 0,-0.561 0.229,-0.762 0.859,-0.762 1.212,0 1.745,0.685 1.745,2.195 0,1.931 -0.776,2.363 -2.604,2.382 v -3.815 m 2.833,4.032 c 1.353,-0.343 2.379,-1.138 2.379,-2.645 0,-1.217 -0.8,-2.04 -1.874,-2.462 -0.684,-0.246 -0.917,-0.276 -2.602,-0.276 h -4.64 v 0.477 c 1.38,0 1.404,0.363 1.404,1.853 v 5.928 c 0,1.53 -0.178,1.858 -1.053,1.858 H 79.56 v 0.479 h 5.317 v -0.479 h -0.359 c -0.87,0 -1.054,-0.314 -1.054,-1.858 v -2.58 h 0.322 l 3.157,4.918 h 3.171 v -0.479 c -0.612,-0.158 -0.813,-0.359 -1.833,-1.858 l -1.984,-2.876 z" id="path18" style="fill: rgb(255, 255, 255); stroke: none;" inkscape:connector-curvature="0"/>
<path d="m 47.866,29.163091 c 0,6.086 4.458,9.105 9.421,11.914 l 4.43,2.518 c 2.41,1.358 3.489,2.896 3.489,4.979 0,2.758 -2.033,4.473 -5.312,4.473 -6.043,0 -7.857,-5.022 -8.84,-9.934 l -0.153,-0.77 h -2.957 v 13.834 h 2.295 l 0.285,-0.32 c 0.53,-0.598 0.53,-0.598 1.044,-0.598 0.888,-0.032 2.033,0.239 3.353,0.55 1.659,0.386 3.539,0.827 5.504,0.827 4.999,0 12.035,-3.355 12.035,-10.813 0,-5.2 -3.116,-7.528 -6.874,-9.833 -0.002,-0.002 -8.258,-4.897 -8.258,-4.897 -1.894,-1.131 -2.816,-2.638 -2.816,-4.61 0,-1.611 1.289,-4.011 4.849,-4.011 2.645,0 5.893,0.979 7.545,8.645 l 0.163,0.754 h 2.897 l -0.362,-12.377 h -2.316 l -0.28,0.479 c -0.124,0.224 -0.332,0.361 -0.547,0.361 -0.119,-0.007 -0.769,-0.217 -1.158,-0.34 -1.479,-0.474 -3.696,-1.188 -5.941,-1.188 -6.661,-10e-4 -11.496,4.353 -11.496,10.357" id="path20" style="fill: rgb(255, 255, 255); stroke: none;" inkscape:connector-curvature="0"/>
<path d="m -5.777,36.114091 c 0,-9.788 4.589,-13.261 8.52,-13.261 4.327,0 6.913,3.633 6.913,7.148 v 16.977 c -0.528,2.19 -2.981,3.779 -5.846,3.779 -4.423,0 -9.587,-3.839 -9.587,-14.643 m 22.343,-34.386 -0.246,0.086 v -10e-4 c -1.372,0.49 -6.773,2.263 -11.134,3.336 l -0.726,0.181 v 3.028 l 1.05,-0.111 c 2.445,-0.251 3.373,0.07 3.721,0.382 0.4,0.362 0.423,1.098 0.423,2.264 v 10.192 c -2.239,-1.588 -4.405,-2.281 -7.144,-2.281 -4.343,0 -8.663,2.184 -11.842,5.989 -3.126,3.741 -4.918,8.762 -4.918,13.768 0,17.567 13.332,18.076 14.853,18.076 3.716,0 6.754,-1.16 9.052,-3.413 v 2.709 l 1.096,0.817 12.341,-4.367 v -2.927 l -1.026,0.079 c -2.399,0.186 -3.317,-0.161 -3.668,-0.482 -0.355,-0.329 -0.421,-0.91 -0.421,-1.933 v -44.899 l -1.317,-0.527 -0.094,0.034 z" id="path22" style="fill: rgb(255, 255, 255); stroke: none;" inkscape:connector-curvature="0"/>
<path d="m 108.746,52.835091 c -3.361,-0.595 -3.797,-0.674 -3.797,-5.561 v -15.363 c 0,-8.695 -3.483,-13.106 -10.345,-13.106 -3.876,0 -7.415,1.655 -10.271,4.751 v -21.154 l -1.257,-0.752 -0.12,0.05 -0.324,0.131 c -1.609,0.66 -7.869,2.529 -10.737,3.33 l -0.697,0.192 v 3.015 l 1.058,-0.119 c 0.64,-0.07 1.129,-0.07 1.809,-0.07 0.707,0 1.207,0.148 1.497,0.439 0.479,0.489 0.465,1.455 0.451,2.231 0,0.005 -0.004,0.348 -0.004,0.348 v 35.923 c 0,4.884 -0.304,5.308 -4.03,5.702 l -0.856,0.094 v 2.957 h 17.709 v -3.032 l -0.157,-0.019 c -3.419,-0.362 -4.34,-0.463 -4.34,-5.626 v -18.11 c 0.43,-0.53 3.575,-4.245 7.445,-4.245 3.356,0 4.852,2.275 4.852,7.376 v 15.058 c 0,4.743 -0.818,5.284 -4.313,5.548 l -0.068,0.002 v 3.049 h 17.285 v -2.9 l -0.79,-0.139" id="path24" style="fill: rgb(255, 255, 255); stroke: none;" inkscape:connector-curvature="0"/>
<path d="M 103.755,-0.10590898 C 94.697,-12.815909 68.786,-9.875909 42.876,5.878091 c -0.137,-0.452 -0.311,-0.885 -0.519,-1.3 31.939,-20.212 63.403,-25.88 72.74,-12.777 5.766,8.09300002 1.849,21.775 -8.958,36.619 -0.201,-2.556 -0.757,-4.666 -1.678,-6.326 3.293,-8.702 3.31,-16.565 -0.706,-22.19999998" id="path26" style="fill: rgb(255, 255, 255); stroke: none;" inkscape:connector-curvature="0"/>
<path d="m 35.375,55.164091 c 5.841,0 8.792,-3.378 10.87,-7.382 0.137,-0.264 0.029,-0.449 -0.235,-0.329 -1.548,0.721 -5.613,2.608 -10.635,2.608 -5.022,0 -9.086,-1.888 -10.638,-2.608 -0.263,-0.12 -0.372,0.065 -0.232,0.329 2.077,4.004 5.027,7.382 10.87,7.382" id="path28" style="fill: rgb(255, 255, 255); fill-rule: evenodd; stroke: none;" inkscape:connector-curvature="0"/>
<path d="m 26.835,38.088091 c 1.611,3.123 3.924,5.85 8.54,5.85 4.612,0 6.928,-2.727 8.536,-5.85 0.107,-0.21 0.02,-0.367 -0.205,-0.268 -1.029,0.474 -4.239,1.905 -8.331,1.905 -4.095,0 -7.305,-1.432 -8.334,-1.905 -0.222,-0.099 -0.314,0.058 -0.206,0.268" id="path30" style="fill: rgb(255, 255, 255); fill-rule: evenodd; stroke: none;" inkscape:connector-curvature="0"/>
<path d="m 28.977,29.200091 c 1.182,2.322 2.911,4.444 6.399,4.444 3.487,0 5.215,-2.122 6.397,-4.444 0.081,-0.16 0.012,-0.293 -0.175,-0.214 -0.554,0.248 -2.981,1.263 -6.222,1.263 -3.244,0 -5.67,-1.015 -6.223,-1.263 -0.188,-0.079 -0.259,0.054 -0.176,0.214" id="path32" style="fill: rgb(255, 255, 255); fill-rule: evenodd; stroke: none;" inkscape:connector-curvature="0"/>
<path d="m 35.375,23.976091 c 2.427,0 3.61,-1.559 4.389,-3.118 0.057,-0.118 0.003,-0.228 -0.152,-0.168 -0.104,0.038 -1.796,0.661 -4.237,0.661 -2.442,0 -4.135,-0.623 -4.239,-0.661 -0.155,-0.059 -0.21,0.05 -0.153,0.168 0.781,1.559 1.963,3.118 4.392,3.118" id="path34" style="fill: rgb(255, 255, 255); fill-rule: evenodd; stroke: none;" inkscape:connector-curvature="0"/>
<path d="m 28.329,8.286091 c 0,-3.677 2.979,-6.659 6.654,-6.659 3.672,0 6.651,2.982 6.651,6.659 0,3.677 -2.979,6.655 -6.651,6.655 -3.676,0 -6.654,-2.978 -6.654,-6.655" id="path36" style="fill: rgb(255, 255, 255); stroke: none;" inkscape:connector-curvature="0"/>
</svg>
